<?xml version="1.0" standalone="no"?>
<!DOCTYPE svg PUBLIC "-//W3C//DTD SVG 1.1//EN" "http://www.w3.org/Graphics/SVG/1.1/DTD/svg11.dtd">
<svg t="1548570951698" class="icon" style="" viewBox="0 0 1024 1024" version="1.1" xmlns="http://www.w3.org/2000/svg"
     p-id="1447" xmlns:xlink="http://www.w3.org/1999/xlink" width="200" height="200">
  <defs>
    <style type="text/css"></style>
  </defs>
  <path d="M155.136 244.224h713.216v602.624H155.136z" fill="#FFFFFF" p-id="1448">
  </path>
  <path
    d="M967.68 0H56.32C25.6 0 0 25.6 0 56.32v911.36c0 31.232 25.6 56.32 56.32 56.32h911.36c31.232 0 56.32-25.6 56.32-56.32V56.32c0-30.72-25.6-56.32-56.32-56.32z m-156.16 656.896c0 41.472-33.792 74.752-74.752 74.752H287.232c-41.472 0-74.752-33.28-74.752-74.752V367.104c0-41.472 33.28-74.752 74.752-74.752h449.024c41.472 0 74.752 33.28 74.752 74.752l0.512 289.792z"
    fill="#4873ED" p-id="1449"></path>
  <path
    d="M712.192 427.008L512 556.032 311.808 427.008c-9.216-6.144-21.504-3.072-27.648 6.144-6.144 9.216-3.072 21.504 6.144 27.648l210.944 135.68c3.072 2.048 7.168 3.072 10.752 3.072s7.68-1.024 10.752-3.072L733.696 460.8a20.48 20.48 0 0 0 6.144-27.648 20.48 20.48 0 0 0-27.648-6.144z"
    fill="#4873ED" p-id="1450"></path>
</svg>
