<svg class="icon" style="width: 1em; height: 1em;vertical-align: middle;fill: currentColor;overflow: hidden;" viewBox="0 0 1024 1024" version="1.1" xmlns="http://www.w3.org/2000/svg" p-id="456"><path d="M965.138204 0.048011C965.074189 0.048011 965.026178 0 964.962163 0H59.373916c-0.064015 0-0.112026 0.048011-0.176041 0.048011C26.486208 0.12803 0 25.81405 0 57.517481v907.108603a59.373916 59.373916 0 0 0 59.373916 59.357912h905.588247a59.373916 59.373916 0 0 0 59.373916-59.357912V57.501477c0-31.687427-26.486208-57.373447-59.197875-57.453466z" fill="#CCCCCC" p-id="457"></path><path d="M928.313573 191.932984h-864.202547v736.172541a32.007502 32.007502 0 0 0 32.007502 32.007501h832.195045a32.007502 32.007502 0 0 0 32.007502-32.007501v-736.172541h-32.007502z" fill="#FFFFFF" p-id="458"></path><path d="M512.216051 576.023005c-88.388716 0-160.037509 71.648793-160.037509 160.037509a32.007502 32.007502 0 0 0 64.015003 0 96.022505 96.022505 0 0 1 192.045011 0 32.007502 32.007502 0 0 0 64.015003 0c0-88.388716-71.664796-160.037509-160.037508-160.037509z" fill="#4D4D4D" p-id="459"></path><path d="M262.610559 535.995541a64.015004 48.011253 59.994 1 0 83.152901-48.019961 64.015004 48.011253 59.994 1 0-83.152901 48.019961Z" fill="#4D4D4D" p-id="460"></path><path d="M688.235449 567.440763a48.011253 64.015004 30 1 0 64.015003-110.877238 48.011253 64.015004 30 1 0-64.015003 110.877238Z" fill="#4D4D4D" p-id="461"></path><path d="M736.268563 63.902977l-0.320075 0.032008H96.118528a32.007502 32.007502 0 0 0 0 64.015003h640.150035a32.007502 32.007502 0 0 0 32.007502-32.007501v-0.016004a32.007502 32.007502 0 0 0-32.007502-32.023506z m96.022505 0a32.007502 32.007502 0 1 0 0.032008 64.047011 32.007502 32.007502 0 0 0-0.032008-64.047011z m96.022505 0a32.007502 32.007502 0 1 0 0.032008 64.047011 32.007502 32.007502 0 0 0-0.032008-64.047011z" fill="#FFFFFF" p-id="462"></path></svg>